<?xml version="1.0" encoding="UTF-8" ?>
<!DOCTYPE svg PUBLIC "-//W3C//DTD SVG 1.1//EN" "http://www.w3.org/Graphics/SVG/1.1/DTD/svg11.dtd">
<svg width="689pt" height="689pt" viewBox="0 0 689 689" version="1.1" xmlns="http://www.w3.org/2000/svg">
<g id="#ffffffff">
</g>
<g id="#f95e28ff">
<path fill="#f95e28" opacity="1.00" d=" M 140.96 28.96 C 146.09 23.48 153.36 19.86 160.97 20.13 C 172.75 19.62 183.34 28.80 186.15 39.98 C 187.88 38.19 187.94 35.37 189.33 33.31 C 195.05 22.41 209.10 17.29 220.60 21.48 C 230.40 24.82 237.75 34.53 237.81 44.95 C 237.85 50.04 237.32 55.71 233.58 59.55 C 224.13 70.12 210.83 76.21 197.55 80.45 C 190.65 76.46 183.62 72.66 176.15 69.84 C 160.68 63.13 140.42 65.43 128.62 78.08 C 133.01 76.91 137.39 75.31 142.01 75.56 C 152.38 75.50 162.15 82.69 165.63 92.38 C 168.71 100.31 166.77 108.97 165.18 117.01 C 161.06 119.01 157.21 121.99 155.27 126.25 C 152.67 131.44 153.23 137.61 155.36 142.86 C 152.77 147.87 149.19 152.24 145.83 156.73 C 140.69 160.61 134.61 163.78 128.01 163.67 C 118.58 163.85 109.32 158.43 104.93 150.08 C 100.75 142.44 100.72 132.71 105.12 125.16 C 107.68 120.89 110.10 116.52 111.88 111.85 C 113.95 106.86 115.47 101.63 115.95 96.22 C 116.25 93.02 117.90 90.19 119.05 87.25 C 114.71 89.68 109.55 90.49 104.71 89.18 C 98.38 87.18 93.07 81.64 92.01 74.99 C 90.81 68.82 93.20 62.08 97.99 58.01 C 102.28 54.30 108.34 52.79 113.87 54.11 C 116.98 54.75 119.56 56.69 122.18 58.37 C 126.55 47.52 132.28 36.99 140.96 28.96 M 137.43 94.42 C 132.53 96.89 131.70 104.52 136.36 107.67 C 141.28 112.10 150.08 107.58 149.28 101.01 C 149.08 95.33 142.34 91.69 137.43 94.42 Z" />
<path fill="#f95e28" opacity="1.00" d=" M 359.06 351.98 C 359.26 350.52 359.10 348.74 360.48 347.79 C 376.04 366.09 393.14 383.13 411.93 398.12 C 421.03 405.36 426.86 416.42 427.96 427.98 C 428.86 439.62 425.41 451.74 417.56 460.52 C 413.50 465.39 408.26 469.06 402.73 472.07 C 395.81 474.73 388.43 476.45 380.98 475.72 C 336.47 470.56 292.77 457.71 252.96 437.06 C 242.97 431.82 232.98 426.46 223.72 419.99 C 255.77 420.75 288.04 413.45 316.28 398.17 C 322.61 395.01 328.22 390.59 334.65 387.62 C 348.32 381.22 358.14 367.09 359.06 351.98 Z" />
</g>
<g id="#f4cb19ff">
<path fill="#f4cb19" opacity="1.00" d=" M 128.62 78.08 C 140.42 65.43 160.68 63.13 176.15 69.84 C 183.62 72.66 190.65 76.46 197.55 80.45 C 207.71 87.40 217.01 95.66 224.79 105.23 C 243.66 128.77 252.77 160.04 248.83 190.01 C 247.21 210.84 251.71 232.11 261.50 250.56 C 274.39 275.44 296.91 295.02 323.20 304.65 C 316.51 304.72 309.63 303.94 303.17 306.11 C 296.91 307.65 291.79 311.85 285.68 313.75 C 271.97 318.23 256.03 315.53 244.96 306.11 C 237.80 301.03 234.25 292.77 228.81 286.16 C 217.56 271.87 202.95 260.14 186.36 252.67 C 166.86 243.44 144.66 240.83 123.37 243.44 C 119.49 243.86 115.63 245.54 111.71 244.62 C 114.92 234.88 119.91 225.86 124.91 216.95 C 132.84 201.52 139.12 185.23 143.42 168.42 C 144.45 164.57 145.45 160.70 145.83 156.73 C 149.19 152.24 152.77 147.87 155.36 142.86 C 159.05 148.33 165.16 152.60 172.00 152.16 C 181.09 152.11 189.42 144.20 189.46 135.02 C 189.97 128.09 185.98 121.18 179.78 118.10 C 175.34 115.58 169.98 115.91 165.18 117.01 C 166.77 108.97 168.71 100.31 165.63 92.38 C 162.15 82.69 152.38 75.50 142.01 75.56 C 137.39 75.31 133.01 76.91 128.62 78.08 Z" />
<path fill="#f4cb19" opacity="1.00" d=" M 80.10 111.66 C 81.29 103.15 89.31 96.12 97.94 96.33 C 103.94 96.34 109.95 96.45 115.95 96.22 C 115.47 101.63 113.95 106.86 111.88 111.85 C 101.29 112.02 90.69 111.86 80.10 111.66 Z" />
</g>
<g id="#331914ff">
<path fill="#331914" opacity="1.00" d=" M 137.43 94.42 C 142.34 91.69 149.08 95.33 149.28 101.01 C 150.08 107.58 141.28 112.10 136.36 107.67 C 131.70 104.52 132.53 96.89 137.43 94.42 Z" />
</g>
<g id="#eeeef0ff">
<path fill="#eeeef0" opacity="1.00" d=" M 165.18 117.01 C 169.98 115.91 175.34 115.58 179.78 118.10 C 185.98 121.18 189.97 128.09 189.46 135.02 C 189.42 144.20 181.09 152.11 172.00 152.16 C 165.16 152.60 159.05 148.33 155.36 142.86 C 153.23 137.61 152.67 131.44 155.27 126.25 C 157.21 121.99 161.06 119.01 165.18 117.01 Z" />
<path fill="#eeeef0" opacity="1.00" d=" M 466.37 243.37 C 467.68 239.25 469.72 235.41 472.14 231.84 C 470.04 257.35 476.94 283.48 491.35 304.62 C 494.23 308.72 497.79 312.32 500.47 316.57 C 509.21 329.57 513.59 345.35 513.30 360.97 C 513.08 374.25 509.13 387.32 502.52 398.80 C 494.31 412.26 482.14 423.31 467.72 429.76 C 461.46 432.71 454.72 434.40 447.99 435.92 C 446.10 433.26 444.04 430.31 440.77 429.30 C 436.62 428.09 432.23 428.30 427.96 427.98 C 426.86 416.42 421.03 405.36 411.93 398.12 C 393.14 383.13 376.04 366.09 360.48 347.79 C 358.33 343.80 359.00 338.99 357.28 334.83 C 354.22 324.41 346.67 315.95 337.66 310.16 C 340.20 308.55 343.09 309.76 345.78 310.24 C 351.76 311.54 357.92 311.08 364.00 311.14 C 380.39 311.70 396.49 306.94 411.34 300.33 C 430.52 290.66 447.44 276.05 458.62 257.61 C 461.42 253.00 464.72 248.58 466.37 243.37 Z" />
</g>
<g id="#462bd8ff">
<path fill="#462bd8" opacity="1.00" d=" M 553.18 131.07 C 585.26 121.43 621.52 126.87 649.19 145.82 C 653.16 148.25 656.41 151.82 660.76 153.63 C 660.21 156.46 658.62 158.94 657.53 161.58 C 641.61 196.87 629.69 233.98 622.09 271.94 C 608.75 354.55 574.78 433.65 524.43 500.45 C 521.55 503.84 519.53 508.32 515.34 510.33 C 499.44 518.59 482.87 525.63 465.72 530.86 C 460.48 532.31 455.35 534.38 449.92 534.94 C 453.12 532.17 457.47 531.73 461.25 530.12 C 473.19 525.05 484.51 518.58 495.21 511.25 C 501.99 506.87 507.72 501.06 512.96 494.98 C 522.01 482.27 527.66 466.71 527.00 450.98 C 526.83 437.50 522.62 424.17 514.96 413.07 C 511.74 407.55 506.82 403.42 502.52 398.80 C 509.13 387.32 513.08 374.25 513.30 360.97 C 513.59 345.35 509.21 329.57 500.47 316.57 C 497.79 312.32 494.23 308.72 491.35 304.62 C 476.94 283.48 470.04 257.35 472.14 231.84 C 473.45 208.69 482.64 186.21 497.25 168.27 C 511.63 150.67 531.33 137.41 553.18 131.07 Z" />
</g>
<g id="#f89ba5ff">
<path fill="#f89ba5" opacity="1.00" d=" M 123.37 243.44 C 144.66 240.83 166.86 243.44 186.36 252.67 C 202.95 260.14 217.56 271.87 228.81 286.16 C 234.25 292.77 237.80 301.03 244.96 306.11 C 256.03 315.53 271.97 318.23 285.68 313.75 C 291.79 311.85 296.91 307.65 303.17 306.11 C 309.63 303.94 316.51 304.72 323.20 304.65 C 328.16 305.97 333.11 307.73 337.66 310.16 C 346.67 315.95 354.22 324.41 357.28 334.83 C 359.00 338.99 358.33 343.80 360.48 347.79 C 359.10 348.74 359.26 350.52 359.06 351.98 C 358.14 367.09 348.32 381.22 334.65 387.62 C 328.22 390.59 322.61 395.01 316.28 398.17 C 288.04 413.45 255.77 420.75 223.72 419.99 C 185.35 418.81 147.38 405.54 117.05 381.93 C 115.44 380.55 113.67 379.37 111.78 378.42 C 110.65 377.34 110.62 375.42 109.96 374.02 C 95.93 335.75 95.52 292.83 108.09 254.12 C 109.18 250.94 110.30 247.77 111.19 244.53 L 111.71 244.62 C 115.63 245.54 119.49 243.86 123.37 243.44 Z" />
</g>
<g id="#6f2bd8ff">
<path fill="#6f2bd8" opacity="1.00" d=" M 111.78 378.42 C 113.67 379.37 115.44 380.55 117.05 381.93 C 147.38 405.54 185.35 418.81 223.72 419.99 C 232.98 426.46 242.97 431.82 252.96 437.06 C 292.77 457.71 336.47 470.56 380.98 475.72 C 388.43 476.45 395.81 474.73 402.73 472.07 C 414.42 473.94 426.43 474.02 438.15 472.37 C 443.45 471.89 448.08 467.38 448.43 462.03 C 449.19 457.52 446.53 453.62 443.44 450.68 C 444.85 448.98 446.35 447.32 447.45 445.40 C 448.97 442.47 448.36 439.04 447.99 435.92 C 454.72 434.40 461.46 432.71 467.72 429.76 C 482.14 423.31 494.31 412.26 502.52 398.80 C 506.82 403.42 511.74 407.55 514.96 413.07 C 522.62 424.17 526.83 437.50 527.00 450.98 C 527.66 466.71 522.01 482.27 512.96 494.98 C 507.72 501.06 501.99 506.87 495.21 511.25 C 484.51 518.58 473.19 525.05 461.25 530.12 C 457.47 531.73 453.12 532.17 449.92 534.94 C 448.62 535.94 446.94 536.09 445.42 536.51 C 436.20 538.51 426.97 540.55 417.60 541.69 C 388.63 545.54 359.15 545.13 330.26 540.79 C 312.24 537.87 294.57 533.18 277.26 527.46 C 225.17 508.72 178.32 475.48 143.98 432.02 C 130.48 416.06 118.99 398.10 111.78 378.42 Z" />
</g>
<g id="#feca56ff">
<path fill="#feca56" opacity="1.00" d=" M 427.96 427.98 C 432.23 428.30 436.62 428.09 440.77 429.30 C 444.04 430.31 446.10 433.26 447.99 435.92 C 448.36 439.04 448.97 442.47 447.45 445.40 C 446.35 447.32 444.85 448.98 443.44 450.68 C 446.53 453.62 449.19 457.52 448.43 462.03 C 448.08 467.38 443.45 471.89 438.15 472.37 C 426.43 474.02 414.42 473.94 402.73 472.07 C 408.26 469.06 413.50 465.39 417.56 460.52 C 425.41 451.74 428.86 439.62 427.96 427.98 Z" />
</g>
<g id="#2b61dbff">
<path fill="#2b61db" opacity="1.00" d=" M 277.26 527.46 C 294.57 533.18 312.24 537.87 330.26 540.79 C 330.03 552.65 328.48 565.24 333.64 576.36 C 336.59 583.27 341.46 589.21 347.34 593.86 C 342.22 597.84 336.16 600.36 329.92 601.99 C 323.71 602.97 317.29 603.08 311.11 601.84 C 298.26 598.67 286.78 589.85 281.22 577.74 C 276.70 568.87 276.75 558.70 276.86 549.00 C 277.06 541.82 276.43 534.60 277.26 527.46 Z" />
</g>
<g id="#4980e5ff">
<path fill="#4980e5" opacity="1.00" d=" M 330.26 540.79 C 359.15 545.13 388.63 545.54 417.60 541.69 C 417.27 551.99 419.04 562.66 415.57 572.61 C 411.02 587.10 398.30 598.35 383.60 601.81 C 377.23 603.15 370.59 603.01 364.20 601.93 C 358.20 600.14 352.32 597.71 347.34 593.86 C 341.46 589.21 336.59 583.27 333.64 576.36 C 328.48 565.24 330.03 552.65 330.26 540.79 Z" />
</g>
<g id="#a7d1c3ff">
<path fill="#a7d1c3" opacity="1.00" d=" M 311.11 601.84 C 317.29 603.08 323.71 602.97 329.92 601.99 C 330.49 616.93 329.78 631.88 330.29 646.82 C 342.60 646.79 354.78 641.20 362.80 631.87 C 364.24 630.29 363.97 628.00 364.12 626.05 C 364.13 618.01 363.96 609.97 364.20 601.93 C 370.59 603.01 377.23 603.15 383.60 601.81 C 383.66 611.07 383.71 620.35 383.59 629.61 C 377.30 633.61 370.98 637.64 364.32 640.97 C 364.15 638.92 363.98 636.87 363.81 634.83 C 361.38 638.42 360.84 643.67 356.43 645.55 C 335.01 657.29 312.71 667.46 289.81 675.96 C 285.12 677.95 279.93 677.00 275.00 677.19 C 266.95 677.01 258.88 677.57 250.85 676.94 C 251.64 676.26 252.54 675.78 253.54 675.48 C 268.40 670.81 283.18 665.89 298.00 661.06 C 302.23 659.67 306.58 658.61 310.64 656.75 C 311.22 638.46 310.28 620.12 311.11 601.84 Z" />
</g>
</svg>
