<?xml version="1.0" encoding="UTF-8" ?>
<!DOCTYPE svg PUBLIC "-//W3C//DTD SVG 1.1//EN" "http://www.w3.org/Graphics/SVG/1.1/DTD/svg11.dtd">
<svg width="399pt" height="360pt" viewBox="0 0 399 360" version="1.1" xmlns="http://www.w3.org/2000/svg">
<g id="#f5ca1bff">
</g>
<g id="#2b61dcff">
<path fill="#2b61dc" opacity="1.00" d=" M 305.92 6.61 C 322.71 3.90 340.40 7.29 355.04 15.95 C 370.34 24.95 382.05 39.70 387.61 56.53 C 393.29 75.02 393.16 95.24 387.64 113.76 C 379.56 141.44 358.47 164.69 332.04 176.05 C 330.35 173.77 328.33 171.78 326.26 169.86 C 324.63 162.38 320.57 155.69 315.38 150.15 C 318.92 148.76 322.72 148.29 326.33 147.15 C 342.98 142.03 357.80 130.93 367.10 116.16 C 373.91 105.38 378.21 92.80 378.43 79.99 C 378.74 61.22 369.61 42.67 354.70 31.30 C 346.11 24.83 335.88 19.83 324.96 19.54 C 306.01 18.38 286.69 24.85 272.38 37.35 C 254.63 52.49 244.82 76.48 247.13 99.71 C 249.76 101.75 252.26 104.47 252.38 107.99 C 252.92 112.96 248.96 117.77 244.01 118.27 C 238.61 119.18 232.96 114.50 233.12 108.97 C 232.74 105.72 235.07 103.25 236.35 100.52 C 236.88 98.40 236.56 96.18 236.67 94.02 C 237.39 70.68 246.58 47.65 262.40 30.43 C 273.61 17.83 289.22 9.14 305.92 6.61 Z" />
<path fill="#2b61dc" opacity="1.00" d=" M 66.18 105.30 C 71.39 94.85 85.32 90.27 95.88 95.07 C 100.51 96.97 104.21 100.57 106.98 104.68 C 104.95 105.43 102.20 105.29 100.79 107.10 C 100.40 112.38 100.71 117.70 100.71 122.99 C 103.34 123.83 106.16 125.07 108.95 124.10 C 111.94 123.42 113.83 120.86 115.76 118.70 C 121.74 126.96 129.57 133.53 137.30 140.07 C 126.59 140.52 116.06 144.96 109.12 153.28 C 102.34 153.29 95.57 153.38 88.80 153.27 C 92.28 149.56 96.08 145.97 98.38 141.36 C 100.28 137.64 97.89 132.76 93.90 131.74 C 90.45 130.67 87.55 133.69 84.21 133.86 C 81.42 133.65 79.61 129.84 81.57 127.70 C 84.88 123.99 89.88 121.57 91.77 116.74 C 93.47 111.75 88.21 106.32 83.17 107.85 C 79.77 109.25 77.38 112.24 74.74 114.68 C 69.44 116.14 63.90 110.52 66.18 105.30 Z" />
<path fill="#2b61dc" opacity="1.00" d=" M 334.50 296.78 C 337.98 292.85 341.49 288.94 345.09 285.12 C 347.98 288.92 350.69 292.86 353.34 296.84 C 347.06 296.91 340.78 296.90 334.50 296.78 Z" />
<path fill="#2b61dc" opacity="1.00" d=" M 258.81 332.86 C 266.10 332.90 273.39 332.65 280.66 333.00 C 277.28 336.55 273.28 339.41 269.59 342.63 C 266.04 345.48 262.84 348.81 258.89 351.15 C 258.53 345.05 258.61 338.95 258.81 332.86 Z" />
</g>
<g id="#f95e28ff">
<path fill="#f95e28" opacity="1.00" d=" M 74.74 114.68 C 77.38 112.24 79.77 109.25 83.17 107.85 C 88.21 106.32 93.47 111.75 91.77 116.74 C 89.88 121.57 84.88 123.99 81.57 127.70 C 79.61 129.84 81.42 133.65 84.21 133.86 C 87.55 133.69 90.45 130.67 93.90 131.74 C 97.89 132.76 100.28 137.64 98.38 141.36 C 96.08 145.97 92.28 149.56 88.80 153.27 C 82.55 153.18 76.24 153.81 70.03 152.92 C 63.51 151.43 60.99 142.25 65.44 137.41 C 68.24 134.47 72.65 133.35 74.79 129.72 C 77.77 125.22 77.35 119.25 74.74 114.68 M 81.36 116.34 C 79.66 116.70 78.72 118.85 79.62 120.34 C 80.60 122.41 84.64 122.35 84.85 119.81 C 85.60 117.64 83.54 115.54 81.36 116.34 Z" />
<path fill="#f95e28" opacity="1.00" d=" M 141.86 193.03 C 142.81 186.70 143.77 179.95 147.69 174.67 C 157.46 191.88 166.63 209.43 176.31 226.69 C 177.37 228.61 178.34 230.59 178.98 232.69 C 171.32 237.97 163.91 243.62 156.54 249.31 C 150.96 244.98 146.50 239.45 141.39 234.61 C 134.50 227.91 127.96 220.82 120.87 214.32 C 118.30 225.92 116.55 237.68 114.16 249.31 C 104.69 249.36 95.22 249.44 85.75 249.23 C 89.66 226.85 94.08 204.56 98.17 182.22 C 98.56 180.06 99.11 177.92 99.74 175.82 C 99.24 188.89 105.65 202.14 116.71 209.28 C 126.54 215.35 136.26 221.78 147.03 226.10 C 142.78 215.67 140.40 204.32 141.86 193.03 Z" />
<path fill="#f95e28" opacity="1.00" d=" M 308.39 210.43 C 314.61 207.15 319.07 201.58 322.86 195.81 C 325.89 197.64 329.01 199.31 332.08 201.07 C 332.66 202.13 332.53 203.40 332.57 204.57 C 331.63 223.28 330.08 241.97 329.66 260.70 C 316.45 260.65 303.24 260.60 290.04 260.73 C 289.72 253.37 290.75 246.02 290.12 238.66 C 283.85 245.60 278.57 253.37 272.65 260.61 C 259.45 260.74 246.24 260.63 233.04 260.66 C 241.88 244.32 250.76 227.98 259.54 211.60 C 260.43 210.37 261.03 208.16 262.93 208.37 C 266.34 208.46 269.47 209.99 272.50 211.43 C 283.57 217.18 297.65 216.80 308.39 210.43 Z" />
</g>
<g id="#fa9aa4ff">
<path fill="#fa9aa4" opacity="1.00" d=" M 106.22 109.85 C 108.26 110.88 111.15 112.11 110.73 114.92 C 110.84 117.57 108.31 118.78 106.12 119.30 C 105.97 116.15 105.99 112.99 106.22 109.85 Z" />
<path fill="#fa9aa4" opacity="1.00" d=" M 172.80 151.10 C 181.57 152.10 190.12 154.54 198.95 155.17 C 206.67 156.05 214.45 155.49 222.20 155.73 C 221.27 160.10 220.12 164.56 220.71 169.06 C 221.86 179.02 230.18 187.58 240.08 189.09 C 245.92 190.24 251.83 188.47 257.05 185.90 C 250.84 193.49 240.71 195.94 231.75 198.78 C 224.62 199.99 217.33 200.73 210.11 199.90 C 204.32 198.05 198.67 194.88 195.45 189.54 C 191.48 183.87 192.25 176.57 189.64 170.38 C 186.51 162.21 180.23 155.59 172.80 151.10 Z" />
</g>
<g id="#2f1f10ff">
<path fill="#2f1f10" opacity="1.00" d=" M 81.36 116.34 C 83.54 115.54 85.60 117.64 84.85 119.81 C 84.64 122.35 80.60 122.41 79.62 120.34 C 78.72 118.85 79.66 116.70 81.36 116.34 Z" />
</g>
<g id="#462bd8ff">
<path fill="#462bd8" opacity="1.00" d=" M 109.12 153.28 C 116.06 144.96 126.59 140.52 137.30 140.07 C 149.79 140.97 161.55 145.93 172.80 151.10 C 180.23 155.59 186.51 162.21 189.64 170.38 C 192.25 176.57 191.48 183.87 195.45 189.54 C 198.67 194.88 204.32 198.05 210.11 199.90 C 194.11 198.17 178.96 189.64 169.09 176.95 C 167.16 174.49 164.96 171.95 161.80 171.16 C 156.85 169.57 151.44 171.24 147.69 174.67 C 143.77 179.95 142.81 186.70 141.86 193.03 C 140.40 204.32 142.78 215.67 147.03 226.10 C 136.26 221.78 126.54 215.35 116.71 209.28 C 105.65 202.14 99.24 188.89 99.74 175.82 C 100.42 167.58 103.53 159.45 109.12 153.28 Z" />
<path fill="#462bd8" opacity="1.00" d=" M 275.75 142.90 C 289.02 137.45 304.61 141.06 315.38 150.15 C 320.57 155.69 324.63 162.38 326.26 169.86 C 327.26 175.03 327.36 180.39 326.37 185.58 C 322.42 179.07 317.33 173.03 310.45 169.50 C 297.42 162.25 279.95 163.73 268.71 173.71 C 264.21 177.18 261.51 182.41 257.05 185.90 C 251.83 188.47 245.92 190.24 240.08 189.09 C 230.18 187.58 221.86 179.02 220.71 169.06 C 220.12 164.56 221.27 160.10 222.20 155.73 C 240.52 154.03 258.96 150.68 275.75 142.90 Z" />
<path fill="#462bd8" opacity="1.00" d=" M 156.54 249.31 C 163.91 243.62 171.32 237.97 178.98 232.69 C 179.04 233.45 179.18 234.97 179.24 235.73 C 179.27 240.25 179.20 244.77 179.19 249.29 C 171.64 249.39 164.09 249.40 156.54 249.31 Z" />
<path fill="#462bd8" opacity="1.00" d=" M 85.75 249.23 C 95.22 249.44 104.69 249.36 114.16 249.31 C 111.79 254.91 109.28 260.44 106.89 266.02 C 99.81 260.47 92.75 254.89 85.75 249.23 Z" />
<path fill="#462bd8" opacity="1.00" d=" M 334.50 296.78 C 340.78 296.90 347.06 296.91 353.34 296.84 C 353.27 314.97 353.44 333.12 353.25 351.25 C 349.42 351.40 345.25 352.18 341.74 350.21 C 337.39 347.83 334.33 343.04 334.52 338.01 C 334.51 324.27 334.57 310.52 334.50 296.78 Z" />
<path fill="#462bd8" opacity="1.00" d=" M 27.40 311.42 C 28.84 311.02 30.42 310.06 31.92 310.74 C 38.27 313.13 44.50 315.87 50.85 318.27 C 52.16 330.45 42.83 340.67 32.81 346.05 C 29.80 347.93 25.72 344.40 26.84 341.15 C 27.62 338.05 31.36 338.22 33.40 336.39 C 37.29 333.19 38.86 327.93 38.13 323.03 C 27.64 323.17 17.56 331.00 15.55 341.41 C 15.04 343.63 14.89 346.43 12.52 347.55 C 11.26 347.81 8.90 348.28 8.48 346.61 C 7.56 338.21 9.94 329.61 14.56 322.58 C 17.68 317.77 21.94 313.45 27.40 311.42 Z" />
<path fill="#462bd8" opacity="1.00" d=" M 131.76 317.98 C 131.54 315.19 134.43 313.41 136.96 313.74 C 151.04 313.77 165.13 313.67 179.22 313.79 C 179.13 317.41 179.82 321.44 177.67 324.65 C 175.91 327.61 172.43 329.19 169.05 329.13 C 158.80 329.23 148.55 329.11 138.30 329.16 C 138.26 335.72 138.65 342.32 138.15 348.86 C 137.55 351.93 134.12 351.50 131.77 351.49 C 131.67 340.32 131.65 329.15 131.76 317.98 Z" />
<path fill="#462bd8" opacity="1.00" d=" M 205.25 340.25 C 207.69 335.65 212.76 332.74 217.95 332.85 C 231.57 332.83 245.19 332.84 258.81 332.86 C 258.61 338.95 258.53 345.05 258.89 351.15 L 258.92 351.89 C 240.68 351.57 222.43 351.87 204.19 351.74 C 203.98 347.91 203.31 343.75 205.25 340.25 Z" />
</g>
<g id="#ffcf57ff">
<path fill="#ffcf57" opacity="1.00" d=" M 326.26 169.86 C 328.33 171.78 330.35 173.77 332.04 176.05 C 337.52 183.35 337.17 193.74 332.83 201.49 L 332.08 201.07 C 329.01 199.31 325.89 197.64 322.86 195.81 C 324.14 192.44 325.63 189.12 326.37 185.58 C 327.36 180.39 327.26 175.03 326.26 169.86 Z" />
</g>
<g id="#ededefff">
<path fill="#ededef" opacity="1.00" d=" M 147.69 174.67 C 151.44 171.24 156.85 169.57 161.80 171.16 C 164.96 171.95 167.16 174.49 169.09 176.95 C 178.96 189.64 194.11 198.17 210.11 199.90 C 217.33 200.73 224.62 199.99 231.75 198.78 C 239.33 199.43 246.08 206.80 244.53 214.55 C 230.12 234.18 203.12 242.85 179.77 236.37 L 179.24 235.73 C 179.18 234.97 179.04 233.45 178.98 232.69 C 178.34 230.59 177.37 228.61 176.31 226.69 C 166.63 209.43 157.46 191.88 147.69 174.67 Z" />
</g>
</svg>
