<?xml version="1.0" encoding="UTF-8" ?>
<!DOCTYPE svg PUBLIC "-//W3C//DTD SVG 1.1//EN" "http://www.w3.org/Graphics/SVG/1.1/DTD/svg11.dtd">
<svg width="176pt" height="194pt" viewBox="0 0 176 194" version="1.1" xmlns="http://www.w3.org/2000/svg">
<g id="#f89ba4ff">
</g>
<g id="#f95e28ff">
<path fill="#f95e28" opacity="1.00" d=" M 50.84 23.25 C 54.42 15.54 59.94 8.04 67.74 4.28 C 70.45 7.29 71.65 11.22 73.40 14.78 C 78.66 14.51 83.79 11.75 89.22 12.89 C 89.11 13.39 88.88 14.38 88.77 14.88 C 74.58 18.44 62.33 29.59 58.05 43.64 C 63.78 44.41 69.55 43.25 74.82 40.97 C 74.97 41.71 75.28 43.19 75.44 43.93 C 73.82 52.04 68.20 59.33 60.56 62.60 C 57.76 63.90 54.06 63.44 52.22 60.78 C 50.18 56.96 50.72 51.80 47.15 48.83 C 44.01 45.65 39.12 47.27 35.36 45.56 C 33.95 41.92 35.98 38.12 38.96 35.99 C 43.07 32.34 48.62 31.46 53.60 29.59 C 55.93 28.84 57.15 26.60 57.97 24.47 C 55.61 23.93 53.23 23.53 50.84 23.25 M 41.28 38.00 C 39.59 38.80 39.15 41.15 40.35 42.54 C 41.60 44.96 46.04 43.73 45.89 40.96 C 46.31 38.51 43.25 36.81 41.28 38.00 Z" />
<path fill="#f95e28" opacity="1.00" d=" M 86.77 92.78 C 96.74 89.85 107.46 90.43 117.17 94.04 C 127.60 98.85 136.61 107.26 140.99 118.00 C 145.49 128.78 147.04 140.61 146.17 152.22 C 145.58 160.40 143.03 168.28 139.95 175.83 C 139.45 176.59 138.92 177.34 138.37 178.07 C 138.04 174.11 135.70 170.88 131.94 169.53 C 131.61 169.32 130.97 168.89 130.65 168.67 C 132.68 165.69 135.21 163.02 136.67 159.68 C 141.31 149.37 138.65 136.32 130.26 128.71 C 120.81 119.52 104.52 119.01 94.46 127.52 C 84.56 135.35 81.45 150.34 87.56 161.41 C 90.89 168.30 97.62 172.39 104.30 175.52 C 101.59 175.46 98.81 175.76 96.15 175.07 C 93.12 173.87 90.51 171.71 87.31 170.88 C 84.70 170.23 82.00 170.16 79.34 169.86 C 74.73 166.14 69.89 162.47 66.47 157.54 C 62.64 152.21 59.91 146.08 58.57 139.65 C 60.51 135.60 62.80 131.72 65.50 128.13 C 68.34 124.16 71.54 120.44 75.14 117.13 C 77.37 114.99 80.15 112.46 79.51 109.02 C 79.29 105.80 76.40 103.98 73.93 102.48 C 77.90 98.86 81.82 95.06 86.77 92.78 Z" />
</g>
<g id="#ebebedff">
<path fill="#ebebed" opacity="1.00" d=" M 58.05 43.64 C 62.33 29.59 74.58 18.44 88.77 14.88 L 89.58 14.69 C 90.11 25.39 84.21 35.87 74.82 40.97 C 69.55 43.25 63.78 44.41 58.05 43.64 Z" />
<path fill="#ebebed" opacity="1.00" d=" M 37.41 62.83 C 43.77 65.87 50.97 65.70 57.68 64.06 C 56.05 65.97 54.32 67.81 52.87 69.86 C 47.83 76.80 46.87 86.29 49.74 94.29 C 50.93 97.74 53.73 100.47 54.60 104.02 C 54.55 108.80 53.90 113.63 54.99 118.36 C 54.46 119.04 53.90 119.70 53.30 120.34 C 52.09 118.80 51.03 117.15 50.00 115.49 C 49.38 114.48 48.76 113.47 48.14 112.46 C 43.25 104.07 40.12 94.67 39.00 85.02 C 37.95 77.64 39.72 70.05 37.41 62.83 Z" />
<path fill="#ebebed" opacity="1.00" d=" M 47.90 145.06 C 51.32 143.54 54.34 141.21 57.89 139.95 C 56.97 143.82 53.65 146.52 50.28 148.28 C 46.68 150.01 41.80 151.01 38.61 147.92 C 38.58 146.24 38.70 144.56 38.92 142.90 C 41.86 143.79 44.79 144.97 47.90 145.06 Z" />
<path fill="#ebebed" opacity="1.00" d=" M 147.10 143.13 C 153.75 144.43 159.91 149.69 160.79 156.65 C 158.74 158.39 156.02 158.40 153.51 158.85 C 149.46 159.58 147.06 165.01 149.48 168.42 C 150.75 170.50 152.02 172.62 152.51 175.05 C 148.65 177.26 144.07 177.61 139.77 176.78 L 139.95 175.83 C 143.03 168.28 145.58 160.40 146.17 152.22 C 146.42 149.19 146.63 146.14 147.10 143.13 Z" />
<path fill="#ebebed" opacity="1.00" d=" M 66.39 174.43 C 69.89 171.23 74.77 170.32 79.34 169.86 C 82.00 170.16 84.70 170.23 87.31 170.88 C 90.51 171.71 93.12 173.87 96.15 175.07 C 98.81 175.76 101.59 175.46 104.30 175.52 C 110.41 175.50 116.93 176.41 122.60 173.59 C 125.63 172.04 128.66 170.49 131.94 169.53 C 135.70 170.88 138.04 174.11 138.37 178.07 C 137.32 181.81 134.34 185.55 130.05 185.10 C 110.70 185.00 91.36 185.41 72.01 185.34 C 68.32 185.32 64.61 185.38 60.95 184.88 C 60.89 180.72 63.45 177.12 66.39 174.43 Z" />
</g>
<g id="#ffca56ff">
<path fill="#ffca56" opacity="1.00" d=" M 19.25 42.93 C 25.66 31.93 37.50 22.42 50.84 23.25 C 53.23 23.53 55.61 23.93 57.97 24.47 C 57.15 26.60 55.93 28.84 53.60 29.59 C 48.62 31.46 43.07 32.34 38.96 35.99 C 35.98 38.12 33.95 41.92 35.36 45.56 C 39.12 47.27 44.01 45.65 47.15 48.83 C 50.72 51.80 50.18 56.96 52.22 60.78 C 54.06 63.44 57.76 63.90 60.56 62.60 C 68.20 59.33 73.82 52.04 75.44 43.93 C 78.42 49.45 81.06 55.17 84.54 60.41 C 87.01 64.52 90.31 68.06 92.90 72.08 C 93.87 76.02 94.43 80.25 93.12 84.18 C 92.02 87.67 89.47 90.43 86.77 92.78 C 81.82 95.06 77.90 98.86 73.93 102.48 C 71.83 103.06 69.54 103.36 67.79 104.78 C 62.87 108.62 58.88 113.50 54.99 118.36 C 53.90 113.63 54.55 108.80 54.60 104.02 C 53.73 100.47 50.93 97.74 49.74 94.29 C 46.87 86.29 47.83 76.80 52.87 69.86 C 54.32 67.81 56.05 65.97 57.68 64.06 C 50.97 65.70 43.77 65.87 37.41 62.83 C 33.19 60.82 30.08 56.86 25.42 55.68 C 22.69 54.66 18.36 54.04 18.14 50.39 C 18.90 49.27 19.65 48.14 20.34 46.98 C 20.11 45.84 19.80 44.71 19.46 43.60 L 19.25 42.93 Z" />
<path fill="#ffca56" opacity="1.00" d=" M 45.99 117.15 C 47.32 116.59 48.65 116.03 50.00 115.49 C 51.03 117.15 52.09 118.80 53.30 120.34 C 56.46 119.32 60.51 118.08 63.21 120.74 C 65.49 122.48 65.43 125.54 65.50 128.13 C 62.80 131.72 60.51 135.60 58.57 139.65 L 57.89 139.95 C 54.34 141.21 51.32 143.54 47.90 145.06 C 44.79 144.97 41.86 143.79 38.92 142.90 C 39.24 133.95 41.90 125.09 45.99 117.15 Z" />
<path fill="#ffca56" opacity="1.00" d=" M 94.46 127.52 C 104.52 119.01 120.81 119.52 130.26 128.71 C 138.65 136.32 141.31 149.37 136.67 159.68 C 135.21 163.02 132.68 165.69 130.65 168.67 C 130.97 168.89 131.61 169.32 131.94 169.53 C 128.66 170.49 125.63 172.04 122.60 173.59 C 116.93 176.41 110.41 175.50 104.30 175.52 C 97.62 172.39 90.89 168.30 87.56 161.41 C 81.45 150.34 84.56 135.35 94.46 127.52 Z" />
</g>
<g id="#242110ff">
<path fill="#242110" opacity="1.00" d=" M 41.28 38.00 C 43.25 36.81 46.31 38.51 45.89 40.96 C 46.04 43.73 41.60 44.96 40.35 42.54 C 39.15 41.15 39.59 38.80 41.28 38.00 Z" />
</g>
<g id="#f2658dff">
<path fill="#f2658d" opacity="1.00" d=" M 18.14 50.39 C 17.74 48.07 17.16 45.17 19.46 43.60 C 19.80 44.71 20.11 45.84 20.34 46.98 C 19.65 48.14 18.90 49.27 18.14 50.39 Z" />
</g>
<g id="#024401ff">
<path fill="#024401" opacity="1.00" d=" M 92.90 72.08 C 97.97 77.34 102.83 82.84 108.64 87.32 C 111.42 89.64 114.56 91.51 117.17 94.04 C 107.46 90.43 96.74 89.85 86.77 92.78 C 89.47 90.43 92.02 87.67 93.12 84.18 C 94.43 80.25 93.87 76.02 92.90 72.08 Z" />
<path fill="#024401" opacity="1.00" d=" M 67.79 104.78 C 69.54 103.36 71.83 103.06 73.93 102.48 C 76.40 103.98 79.29 105.80 79.51 109.02 C 80.15 112.46 77.37 114.99 75.14 117.13 C 71.54 120.44 68.34 124.16 65.50 128.13 C 65.43 125.54 65.49 122.48 63.21 120.74 C 60.51 118.08 56.46 119.32 53.30 120.34 C 53.90 119.70 54.46 119.04 54.99 118.36 C 58.88 113.50 62.87 108.62 67.79 104.78 Z" />
<path fill="#024401" opacity="1.00" d=" M 45.99 117.15 C 46.55 115.52 47.26 113.94 48.14 112.46 C 48.76 113.47 49.38 114.48 50.00 115.49 C 48.65 116.03 47.32 116.59 45.99 117.15 Z" />
<path fill="#024401" opacity="1.00" d=" M 160.79 156.65 C 160.96 156.57 161.29 156.41 161.45 156.33 C 162.17 163.61 159.30 171.58 152.51 175.05 C 152.02 172.62 150.75 170.50 149.48 168.42 C 147.06 165.01 149.46 159.58 153.51 158.85 C 156.02 158.40 158.74 158.39 160.79 156.65 Z" />
</g>
</svg>
