<?xml version="1.0" encoding="UTF-8" ?>
<!DOCTYPE svg PUBLIC "-//W3C//DTD SVG 1.1//EN" "http://www.w3.org/Graphics/SVG/1.1/DTD/svg11.dtd">
<svg width="267pt" height="155pt" viewBox="0 0 267 155" version="1.1" xmlns="http://www.w3.org/2000/svg">
<g id="#f2c65bff">
<path fill="#f2c65b" opacity="1.00" d=" M 66.43 16.27 C 70.26 14.80 74.96 17.36 75.98 21.29 C 77.19 24.95 74.98 29.30 71.31 30.47 C 68.63 31.38 65.87 30.15 63.28 29.49 C 62.12 27.17 61.29 24.69 60.73 22.16 C 62.27 19.92 63.68 17.19 66.43 16.27 Z" />
</g>
<g id="#331814ff">
<path fill="#331814" opacity="1.00" d=" M 66.33 10.88 C 71.21 8.15 77.78 7.92 82.09 11.88 C 87.92 16.50 87.95 26.19 82.34 31.01 C 81.26 31.83 80.12 32.58 78.96 33.28 C 75.93 33.91 72.83 33.99 69.76 34.34 C 67.62 32.71 65.39 31.18 63.28 29.49 C 65.87 30.15 68.63 31.38 71.31 30.47 C 74.98 29.30 77.19 24.95 75.98 21.29 C 74.96 17.36 70.26 14.80 66.43 16.27 C 63.68 17.19 62.27 19.92 60.73 22.16 C 60.91 20.45 61.14 18.74 61.35 17.04 C 62.90 14.90 64.50 12.79 66.33 10.88 Z" />
<path fill="#331814" opacity="1.00" d=" M 11.70 19.88 C 10.58 16.63 13.58 12.84 16.99 13.16 C 19.52 13.08 20.90 15.54 22.46 17.12 C 22.11 20.50 19.99 23.03 16.94 24.38 C 14.99 23.20 12.39 22.32 11.70 19.88 Z" />
<path fill="#331814" opacity="1.00" d=" M 47.84 23.76 C 49.29 23.77 50.74 23.78 52.19 23.81 C 52.19 25.24 52.18 26.68 52.16 28.12 C 50.73 28.12 49.29 28.11 47.85 28.10 C 47.84 26.66 47.84 25.21 47.84 23.76 Z" />
<path fill="#331814" opacity="1.00" d=" M 161.32 115.65 C 163.38 112.88 165.07 109.84 166.47 106.68 C 169.62 112.05 174.47 116.19 180.40 118.20 C 179.57 120.61 178.70 123.01 177.79 125.39 C 168.30 125.29 158.76 125.88 149.30 125.06 C 153.85 122.70 158.02 119.60 161.32 115.65 Z" />
</g>
<g id="#462bd8ff">
<path fill="#462bd8" opacity="1.00" d=" M 55.74 17.04 C 58.06 13.39 61.89 10.82 66.33 10.88 C 64.50 12.79 62.90 14.90 61.35 17.04 C 59.48 17.04 57.61 17.04 55.74 17.04 Z" />
<path fill="#462bd8" opacity="1.00" d=" M 111.55 39.10 C 128.34 37.47 145.42 45.02 156.17 57.89 C 166.96 70.44 170.81 88.06 167.55 104.16 C 165.65 102.86 163.87 101.24 161.63 100.58 C 159.24 100.32 156.88 100.97 154.54 101.37 C 156.59 94.49 157.15 86.87 154.57 80.05 C 151.94 72.59 146.55 66.21 139.66 62.32 C 135.04 59.74 131.14 56.03 128.14 51.67 C 124.56 45.40 118.41 41.13 111.55 39.10 Z" />
</g>
<g id="#eeeef0ff">
<path fill="#eeeef0" opacity="1.00" d=" M 22.46 17.12 C 26.87 17.10 31.29 17.12 35.71 17.12 C 36.04 18.84 36.36 20.57 36.73 22.29 C 37.56 27.23 40.41 31.59 44.15 34.84 C 41.91 36.56 39.74 38.55 36.99 39.41 C 34.08 40.12 31.06 39.79 28.13 39.42 C 22.57 36.11 18.60 30.61 16.94 24.38 C 19.99 23.03 22.11 20.50 22.46 17.12 Z" />
<path fill="#eeeef0" opacity="1.00" d=" M 58.17 51.54 C 60.52 52.78 63.12 53.95 64.63 56.26 C 66.45 59.02 67.05 62.37 68.80 65.17 C 70.20 67.27 72.31 68.73 74.22 70.34 C 72.04 72.88 69.48 75.07 66.87 77.17 C 66.04 73.10 65.60 68.97 64.81 64.90 C 63.73 59.96 60.60 55.87 58.17 51.54 Z" />
<path fill="#eeeef0" opacity="1.00" d=" M 86.25 69.55 C 93.55 70.58 97.54 77.94 104.67 79.32 C 109.97 80.64 115.47 79.30 120.33 77.07 C 117.75 81.23 115.65 85.98 116.00 90.99 C 117.27 105.53 125.43 118.63 136.35 128.01 C 134.26 127.91 132.18 127.77 130.12 127.45 C 128.25 127.16 126.39 126.81 124.52 126.47 C 116.25 122.61 108.78 116.24 105.39 107.57 C 102.53 101.40 102.95 94.47 103.23 87.86 C 97.14 87.24 91.04 87.79 84.95 88.00 C 80.95 88.25 77.17 86.72 73.73 84.82 C 79.40 81.21 83.70 75.73 86.25 69.55 Z" />
<path fill="#eeeef0" opacity="1.00" d=" M 54.01 79.42 C 54.33 79.63 54.98 80.05 55.30 80.26 C 59.36 82.36 62.01 86.08 64.26 89.93 C 63.88 93.80 63.79 97.69 63.64 101.57 C 61.10 100.61 58.32 99.45 57.34 96.67 C 55.16 91.22 52.75 85.41 54.01 79.42 Z" />
<path fill="#eeeef0" opacity="1.00" d=" M 210.97 88.02 C 222.98 89.16 234.71 92.88 245.25 98.74 C 248.15 100.41 251.09 102.15 253.39 104.63 C 258.18 109.86 257.02 119.19 251.11 123.12 C 247.98 125.60 243.82 125.56 240.03 125.54 C 219.28 125.36 198.54 125.62 177.79 125.39 C 178.70 123.01 179.57 120.61 180.40 118.20 C 199.27 118.67 218.15 118.24 237.03 118.45 C 241.65 118.53 247.79 117.12 249.30 112.13 C 239.28 100.50 225.29 93.05 210.97 88.02 Z" />
<path fill="#eeeef0" opacity="1.00" d=" M 138.58 127.66 C 144.16 121.86 149.50 115.56 152.33 107.91 C 153.31 109.77 154.02 111.91 155.63 113.36 C 157.32 114.55 159.39 114.98 161.32 115.65 C 158.02 119.60 153.85 122.70 149.30 125.06 C 147.29 126.11 145.05 126.66 142.82 127.04 C 141.41 127.26 140.00 127.46 138.58 127.66 Z" />
</g>
<g id="#f95e28ff">
<path fill="#f95e28" opacity="1.00" d=" M 36.98 17.07 C 43.23 17.19 49.48 17.12 55.74 17.04 C 57.61 17.04 59.48 17.04 61.35 17.04 C 61.14 18.74 60.91 20.45 60.73 22.16 C 61.29 24.69 62.12 27.17 63.28 29.49 C 65.39 31.18 67.62 32.71 69.76 34.34 C 66.26 36.17 62.76 38.32 58.73 38.64 C 53.59 39.24 48.48 37.52 44.15 34.84 C 40.41 31.59 37.56 27.23 36.73 22.29 C 36.69 20.55 36.86 18.81 36.98 17.07 M 47.84 23.76 C 47.84 25.21 47.84 26.66 47.85 28.10 C 49.29 28.11 50.73 28.12 52.16 28.12 C 52.18 26.68 52.19 25.24 52.19 23.81 C 50.74 23.78 49.29 23.77 47.84 23.76 Z" />
<path fill="#f95e28" opacity="1.00" d=" M 78.96 33.28 C 80.12 32.58 81.26 31.83 82.34 31.01 C 85.62 34.09 89.52 36.34 93.41 38.55 C 90.80 39.38 88.06 41.22 85.25 40.15 C 82.24 38.91 80.85 35.71 78.96 33.28 Z" />
<path fill="#f95e28" opacity="1.00" d=" M 124.78 72.88 C 129.98 70.83 135.77 69.25 141.32 70.79 C 146.60 72.39 150.63 76.39 154.57 80.05 C 157.15 86.87 156.59 94.49 154.54 101.37 C 153.87 103.57 153.14 105.75 152.33 107.91 C 149.50 115.56 144.16 121.86 138.58 127.66 C 137.84 127.77 137.09 127.89 136.35 128.01 C 125.43 118.63 117.27 105.53 116.00 90.99 C 115.65 85.98 117.75 81.23 120.33 77.07 C 121.81 75.67 123.29 74.27 124.78 72.88 Z" />
</g>
<g id="#2b61dbff">
<path fill="#2b61db" opacity="1.00" d=" M 69.76 34.34 C 72.83 33.99 75.93 33.91 78.96 33.28 C 80.85 35.71 82.24 38.91 85.25 40.15 C 88.06 41.22 90.80 39.38 93.41 38.55 C 95.36 38.10 97.33 39.23 99.29 39.42 C 103.36 40.43 107.47 39.25 111.55 39.10 C 118.41 41.13 124.56 45.40 128.14 51.67 C 130.59 58.81 129.59 66.94 124.78 72.88 C 123.29 74.27 121.81 75.67 120.33 77.07 C 115.47 79.30 109.97 80.64 104.67 79.32 C 97.54 77.94 93.55 70.58 86.25 69.55 C 89.45 61.23 89.39 51.53 85.46 43.47 C 84.91 41.63 82.76 41.84 81.28 41.34 C 81.10 45.25 81.56 49.16 81.28 53.07 C 80.72 59.36 78.14 65.41 74.22 70.34 C 72.31 68.73 70.20 67.27 68.80 65.17 C 67.05 62.37 66.45 59.02 64.63 56.26 C 63.12 53.95 60.52 52.78 58.17 51.54 C 54.62 49.65 51.97 46.43 48.28 44.76 C 42.05 41.37 34.80 41.39 28.13 39.42 C 31.06 39.79 34.08 40.12 36.99 39.41 C 39.74 38.55 41.91 36.56 44.15 34.84 C 48.48 37.52 53.59 39.24 58.73 38.64 C 62.76 38.32 66.26 36.17 69.76 34.34 Z" />
<path fill="#2b61db" opacity="1.00" d=" M 154.54 101.37 C 156.88 100.97 159.24 100.32 161.63 100.58 C 163.87 101.24 165.65 102.86 167.55 104.16 C 167.28 104.79 166.74 106.05 166.47 106.68 C 165.07 109.84 163.38 112.88 161.32 115.65 C 159.39 114.98 157.32 114.55 155.63 113.36 C 154.02 111.91 153.31 109.77 152.33 107.91 C 153.14 105.75 153.87 103.57 154.54 101.37 Z" />
</g>
<g id="#f4cb18ff">
<path fill="#f4cb18" opacity="1.00" d=" M 81.28 41.34 C 82.76 41.84 84.91 41.63 85.46 43.47 C 89.39 51.53 89.45 61.23 86.25 69.55 C 83.70 75.73 79.40 81.21 73.73 84.82 C 70.65 86.66 67.37 88.14 64.26 89.93 C 62.01 86.08 59.36 82.36 55.30 80.26 C 58.28 75.02 61.86 70.16 64.81 64.90 C 65.60 68.97 66.04 73.10 66.87 77.17 C 69.48 75.07 72.04 72.88 74.22 70.34 C 78.14 65.41 80.72 59.36 81.28 53.07 C 81.56 49.16 81.10 45.25 81.28 41.34 Z" />
<path fill="#f4cb18" opacity="1.00" d=" M 128.14 51.67 C 131.14 56.03 135.04 59.74 139.66 62.32 C 146.55 66.21 151.94 72.59 154.57 80.05 C 150.63 76.39 146.60 72.39 141.32 70.79 C 135.77 69.25 129.98 70.83 124.78 72.88 C 129.59 66.94 130.59 58.81 128.14 51.67 Z" />
</g>
<g id="#a6d1c3ff">
<path fill="#a6d1c3" opacity="1.00" d=" M 96.77 124.80 C 100.36 123.18 103.69 126.12 107.11 126.84 C 112.88 127.80 118.74 126.94 124.52 126.47 C 126.39 126.81 128.25 127.16 130.12 127.45 C 130.02 129.29 129.92 131.12 129.83 132.96 C 121.95 132.86 114.05 133.31 106.19 132.70 C 101.40 132.07 96.57 131.86 91.75 131.75 C 92.93 129.17 93.83 125.90 96.77 124.80 Z" />
<path fill="#a6d1c3" opacity="1.00" d=" M 136.35 128.01 C 137.09 127.89 137.84 127.77 138.58 127.66 C 140.00 127.46 141.41 127.26 142.82 127.04 C 142.51 132.95 142.57 138.88 142.69 144.80 C 134.86 144.75 127.01 145.13 119.19 144.52 C 114.37 143.77 109.51 143.46 104.63 143.50 C 105.45 141.01 105.96 137.86 108.66 136.68 C 112.79 134.75 116.87 137.87 120.97 138.31 C 126.00 138.80 131.05 138.38 136.09 138.32 C 136.15 134.88 136.21 131.45 136.35 128.01 Z" />
</g>
</svg>
