<?xml version="1.0" encoding="UTF-8" ?>
<!DOCTYPE svg PUBLIC "-//W3C//DTD SVG 1.1//EN" "http://www.w3.org/Graphics/SVG/1.1/DTD/svg11.dtd">
<svg width="306pt" height="136pt" viewBox="0 0 306 136" version="1.1" xmlns="http://www.w3.org/2000/svg">
<g id="#2b61dbff">
</g>
<g id="#30201bff">
<path fill="#30201b" opacity="1.00" d=" M 181.43 13.18 C 186.44 11.60 191.80 11.64 197.01 11.48 C 209.07 11.26 221.07 13.68 232.30 18.04 C 232.17 23.41 231.76 28.78 230.87 34.08 C 223.60 29.47 215.89 25.27 207.34 23.67 C 186.72 19.21 164.22 27.21 151.00 43.62 C 150.26 44.42 149.54 45.23 148.82 46.04 C 154.46 31.06 166.87 19.42 181.43 13.18 Z" />
<path fill="#30201b" opacity="1.00" d=" M 53.11 14.75 C 54.85 16.81 56.55 18.98 57.46 21.54 C 58.26 24.62 59.94 27.57 59.92 30.81 C 59.53 34.17 55.78 34.97 53.15 35.92 C 52.33 35.22 51.51 34.52 50.70 33.83 C 52.26 30.82 53.83 27.81 55.29 24.74 C 52.50 25.20 49.71 25.69 46.97 26.41 C 48.50 22.27 50.78 18.48 53.11 14.75 Z" />
<path fill="#30201b" opacity="1.00" d=" M 116.97 24.03 C 120.58 24.48 124.22 24.72 127.87 24.86 C 128.41 39.29 132.76 53.26 139.25 66.08 L 138.34 66.02 C 132.57 61.06 127.49 55.25 123.82 48.56 C 119.91 41.27 117.36 33.19 117.04 24.89 L 116.97 24.03 Z" />
<path fill="#30201b" opacity="1.00" d=" M 65.75 25.17 C 75.17 27.22 83.78 32.92 88.94 41.12 C 97.04 53.37 96.30 70.82 86.98 82.22 C 87.36 76.30 88.03 70.35 87.31 64.44 C 85.92 52.82 81.10 41.52 73.21 32.82 C 70.85 30.15 68.15 27.80 65.75 25.17 Z" />
<path fill="#30201b" opacity="1.00" d=" M 37.32 40.40 C 39.20 39.55 41.70 42.49 40.08 44.18 C 39.14 45.79 36.86 45.80 35.90 44.20 C 34.66 42.95 35.78 40.76 37.32 40.40 Z" />
<path fill="#30201b" opacity="1.00" d=" M 21.13 59.72 C 22.76 59.65 24.39 59.57 26.02 59.49 C 25.48 61.48 24.40 63.25 23.30 64.97 C 21.77 63.33 20.28 61.64 18.93 59.85 C 19.48 59.82 20.58 59.75 21.13 59.72 Z" />
<path fill="#30201b" opacity="1.00" d=" M 240.10 92.41 C 242.09 88.22 243.76 83.89 245.71 79.69 C 247.60 84.61 248.41 89.97 247.30 95.18 C 244.89 94.26 242.49 93.34 240.10 92.41 Z" />
<path fill="#30201b" opacity="1.00" d=" M 267.41 91.23 C 268.33 92.10 269.51 92.82 270.04 94.02 C 269.59 95.16 268.92 96.22 268.03 97.06 C 265.49 97.18 262.95 97.16 260.41 97.13 C 262.75 95.17 265.12 93.25 267.41 91.23 Z" />
<path fill="#30201b" opacity="1.00" d=" M 64.61 99.92 C 71.43 98.86 78.33 96.86 83.26 91.73 C 82.79 93.60 82.40 95.55 81.30 97.17 C 76.15 99.75 70.33 100.77 64.61 99.92 Z" />
<path fill="#30201b" opacity="1.00" d=" M 96.49 100.92 C 98.89 101.90 101.33 102.82 103.71 103.87 C 101.31 104.37 98.90 104.77 96.49 105.18 C 96.47 103.76 96.48 102.34 96.49 100.92 Z" />
<path fill="#30201b" opacity="1.00" d=" M 62.77 111.54 C 66.24 110.76 69.73 110.03 73.10 108.88 C 71.68 110.69 70.12 112.38 68.51 114.03 C 66.59 113.20 64.67 112.39 62.77 111.54 Z" />
<path fill="#30201b" opacity="1.00" d=" M 227.00 121.60 C 226.28 117.09 228.02 111.50 233.07 110.54 C 235.85 110.62 239.05 110.80 241.02 113.05 C 243.04 115.41 242.86 118.73 243.26 121.64 C 237.84 121.59 232.42 121.66 227.00 121.60 Z" />
<path fill="#30201b" opacity="1.00" d=" M 177.52 121.14 C 178.68 119.22 179.82 117.28 181.04 115.39 C 181.25 117.51 181.38 119.64 181.45 121.77 C 180.14 121.56 178.83 121.35 177.52 121.14 Z" />
</g>
<g id="#f95e28ff">
<path fill="#f95e28" opacity="1.00" d=" M 161.72 18.74 C 168.05 16.19 174.56 13.69 181.43 13.18 C 166.87 19.42 154.46 31.06 148.82 46.04 C 144.78 52.17 141.01 58.73 140.03 66.14 L 139.25 66.08 C 132.76 53.26 128.41 39.29 127.87 24.86 C 139.39 24.81 150.96 22.93 161.72 18.74 Z" />
<path fill="#f95e28" opacity="1.00" d=" M 63.52 24.36 C 80.93 19.69 99.83 19.07 117.04 24.89 C 117.36 33.19 119.91 41.27 123.82 48.56 C 118.27 54.97 114.23 62.54 111.23 70.44 C 102.41 73.09 93.35 77.04 87.89 84.83 C 86.25 87.06 85.01 89.58 83.26 91.73 C 78.33 96.86 71.43 98.86 64.61 99.92 C 70.33 100.77 76.15 99.75 81.30 97.17 C 79.07 101.37 76.71 105.69 73.10 108.88 C 69.73 110.03 66.24 110.76 62.77 111.54 C 64.67 112.39 66.59 113.20 68.51 114.03 C 64.81 116.77 61.36 120.38 56.80 121.56 C 47.75 121.78 38.70 121.51 29.65 121.65 C 29.58 115.99 32.22 109.97 37.73 107.73 C 42.07 105.24 48.29 108.11 51.64 103.65 C 58.99 93.25 62.51 80.28 61.74 67.58 C 63.60 65.32 65.31 62.81 65.89 59.89 C 67.48 53.04 62.59 45.54 55.80 43.95 C 52.59 43.14 49.30 43.99 46.18 44.77 C 46.91 42.44 48.13 39.99 47.49 37.50 C 46.75 35.36 45.21 33.65 43.86 31.88 C 43.53 33.35 43.21 34.82 42.86 36.29 C 38.66 35.92 33.24 35.53 30.98 39.98 C 28.18 43.85 30.63 48.42 33.30 51.55 C 33.74 50.15 34.18 48.75 34.62 47.35 C 37.33 47.42 40.05 47.42 42.76 47.21 C 39.89 50.73 38.91 55.16 38.39 59.56 C 38.15 63.50 32.90 65.43 29.95 63.09 C 27.76 60.41 26.63 57.03 24.31 54.42 C 24.84 56.12 25.45 57.80 26.02 59.49 C 24.39 59.57 22.76 59.65 21.13 59.72 C 20.69 58.81 20.24 57.90 19.79 56.99 C 18.67 57.16 17.55 57.32 16.43 57.49 L 15.61 57.62 C 19.42 52.13 25.14 48.15 28.13 42.08 C 32.23 34.77 39.27 29.46 46.97 26.41 C 49.71 25.69 52.50 25.20 55.29 24.74 C 53.83 27.81 52.26 30.82 50.70 33.83 C 51.51 34.52 52.33 35.22 53.15 35.92 C 55.44 38.16 58.99 40.57 62.00 38.03 C 66.51 34.75 62.50 28.88 63.52 24.36 M 65.75 25.17 C 68.15 27.80 70.85 30.15 73.21 32.82 C 81.10 41.52 85.92 52.82 87.31 64.44 C 88.03 70.35 87.36 76.30 86.98 82.22 C 96.30 70.82 97.04 53.37 88.94 41.12 C 83.78 32.92 75.17 27.22 65.75 25.17 Z" />
<path fill="#f95e28" opacity="1.00" d=" M 151.00 43.62 C 164.22 27.21 186.72 19.21 207.34 23.67 C 204.12 37.46 205.03 52.33 211.41 65.11 C 220.98 57.47 227.72 46.52 230.78 34.71 C 236.99 37.68 241.65 43.11 244.93 49.05 C 245.29 50.04 245.66 51.04 246.03 52.03 C 248.10 67.10 255.21 81.81 267.41 91.23 C 265.12 93.25 262.75 95.17 260.41 97.13 C 262.95 97.16 265.49 97.18 268.03 97.06 C 263.88 103.83 259.37 110.38 255.15 117.10 C 254.07 118.65 253.17 120.42 251.61 121.53 C 248.83 121.78 246.04 121.61 243.26 121.64 C 242.86 118.73 243.04 115.41 241.02 113.05 C 239.05 110.80 235.85 110.62 233.07 110.54 C 240.00 108.18 245.44 102.25 247.30 95.18 C 248.41 89.97 247.60 84.61 245.71 79.69 C 243.76 83.89 242.09 88.22 240.10 92.41 C 227.70 87.06 217.66 77.20 211.32 65.36 C 208.94 67.09 206.74 69.21 203.95 70.25 C 194.28 69.19 184.37 69.61 175.12 72.87 L 174.50 73.06 C 173.76 72.45 173.02 71.83 172.28 71.22 C 167.56 60.45 159.77 51.32 151.00 43.62 Z" />
<path fill="#f95e28" opacity="1.00" d=" M 256.87 59.99 C 258.38 64.54 260.69 68.81 264.10 72.22 C 260.83 70.65 257.98 68.39 255.10 66.22 L 255.30 65.53 C 255.85 63.69 256.37 61.84 256.87 59.99 Z" />
</g>
<g id="#f1f1f3ff">
<path fill="#f1f1f3" opacity="1.00" d=" M 57.46 21.54 C 58.31 20.04 59.15 18.54 60.03 17.05 C 61.73 19.16 63.92 21.40 63.52 24.36 C 62.50 28.88 66.51 34.75 62.00 38.03 C 58.99 40.57 55.44 38.16 53.15 35.92 C 55.78 34.97 59.53 34.17 59.92 30.81 C 59.94 27.57 58.26 24.62 57.46 21.54 Z" />
<path fill="#f1f1f3" opacity="1.00" d=" M 43.86 31.88 C 45.21 33.65 46.75 35.36 47.49 37.50 C 48.13 39.99 46.91 42.44 46.18 44.77 C 49.30 43.99 52.59 43.14 55.80 43.95 C 62.59 45.54 67.48 53.04 65.89 59.89 C 65.31 62.81 63.60 65.32 61.74 67.58 C 58.17 70.64 53.04 71.96 48.50 70.52 C 45.71 69.71 43.51 67.71 41.28 65.94 C 38.57 68.85 35.77 71.68 32.97 74.50 C 29.71 71.36 26.53 68.14 23.30 64.97 C 24.40 63.25 25.48 61.48 26.02 59.49 C 25.45 57.80 24.84 56.12 24.31 54.42 C 26.63 57.03 27.76 60.41 29.95 63.09 C 32.90 65.43 38.15 63.50 38.39 59.56 C 38.91 55.16 39.89 50.73 42.76 47.21 C 40.05 47.42 37.33 47.42 34.62 47.35 C 34.18 48.75 33.74 50.15 33.30 51.55 C 30.63 48.42 28.18 43.85 30.98 39.98 C 33.24 35.53 38.66 35.92 42.86 36.29 C 43.21 34.82 43.53 33.35 43.86 31.88 M 37.32 40.40 C 35.78 40.76 34.66 42.95 35.90 44.20 C 36.86 45.80 39.14 45.79 40.08 44.18 C 41.70 42.49 39.20 39.55 37.32 40.40 Z" />
<path fill="#f1f1f3" opacity="1.00" d=" M 16.43 57.49 C 17.55 57.32 18.67 57.16 19.79 56.99 C 20.24 57.90 20.69 58.81 21.13 59.72 C 20.58 59.75 19.48 59.82 18.93 59.85 L 17.94 59.91 C 17.57 59.31 16.81 58.10 16.43 57.49 Z" />
<path fill="#f1f1f3" opacity="1.00" d=" M 111.23 70.44 C 120.03 67.80 129.18 66.49 138.34 66.02 L 139.25 66.08 L 140.03 66.14 C 150.99 66.15 161.72 68.44 172.28 71.22 C 173.02 71.83 173.76 72.45 174.50 73.06 C 166.81 76.32 160.01 81.41 152.00 83.96 C 140.85 88.10 128.77 88.53 117.04 87.43 C 115.24 98.22 111.57 108.71 106.18 118.23 C 105.45 119.39 104.79 120.71 103.62 121.50 C 96.95 121.84 90.26 121.45 83.58 121.65 C 83.78 119.20 83.81 116.46 85.61 114.56 C 87.83 112.00 91.62 112.16 94.27 110.27 C 95.59 108.91 95.83 106.89 96.49 105.18 C 98.90 104.77 101.31 104.37 103.71 103.87 C 101.33 102.82 98.89 101.90 96.49 100.92 C 95.81 94.65 92.62 88.95 87.89 84.83 C 93.35 77.04 102.41 73.09 111.23 70.44 Z" />
<path fill="#f1f1f3" opacity="1.00" d=" M 175.12 72.87 C 184.37 69.61 194.28 69.19 203.95 70.25 C 199.32 76.16 196.81 84.27 199.52 91.56 C 201.38 96.11 203.73 100.44 205.80 104.90 C 201.42 110.45 197.13 116.06 192.75 121.60 C 188.98 121.59 185.21 121.59 181.45 121.77 C 181.38 119.64 181.25 117.51 181.04 115.39 C 179.82 117.28 178.68 119.22 177.52 121.14 L 177.18 121.71 C 173.15 121.55 169.11 121.62 165.08 121.57 C 165.25 118.54 165.27 114.98 167.95 112.96 C 170.36 110.50 173.99 111.22 177.07 111.30 C 181.83 111.90 186.13 106.87 185.12 102.26 C 182.08 99.52 178.45 97.27 176.41 93.59 C 172.53 87.41 172.50 79.54 175.12 72.87 Z" />
</g>
<g id="#2d61aeff">
</g>
<g id="#feca55ff">
<path fill="#feca55" opacity="1.00" d=" M 207.34 23.67 C 215.89 25.27 223.60 29.47 230.87 34.08 L 230.78 34.71 C 227.72 46.52 220.98 57.47 211.41 65.11 C 205.03 52.33 204.12 37.46 207.34 23.67 Z" />
<path fill="#feca55" opacity="1.00" d=" M 274.11 38.87 C 282.59 39.12 291.35 44.42 292.87 53.27 C 289.80 58.77 285.26 63.87 278.80 65.16 C 281.01 62.61 284.03 59.81 283.19 56.05 C 282.57 51.26 277.54 48.45 273.00 49.43 C 274.89 48.76 277.27 47.89 277.58 45.60 C 278.37 42.75 275.66 40.81 274.11 38.87 Z" />
<path fill="#feca55" opacity="1.00" d=" M 151.00 43.62 C 159.77 51.32 167.56 60.45 172.28 71.22 C 161.72 68.44 150.99 66.15 140.03 66.14 C 141.01 58.73 144.78 52.17 148.82 46.04 C 149.54 45.23 150.26 44.42 151.00 43.62 Z" />
<path fill="#feca55" opacity="1.00" d=" M 111.23 70.44 C 114.23 62.54 118.27 54.97 123.82 48.56 C 127.49 55.25 132.57 61.06 138.34 66.02 C 129.18 66.49 120.03 67.80 111.23 70.44 Z" />
</g>
<g id="#3b2bb2ff">
<path fill="#3b2bb2" opacity="1.00" d=" M 246.54 26.59 C 251.64 30.88 254.84 37.04 256.48 43.43 C 257.74 48.37 257.46 54.01 260.86 58.17 C 264.98 63.61 272.10 66.17 278.80 65.16 C 285.26 63.87 289.80 58.77 292.87 53.27 C 294.37 59.97 292.24 67.47 286.60 71.63 C 280.29 76.80 270.74 76.63 264.10 72.22 C 260.69 68.81 258.38 64.54 256.87 59.99 C 256.37 61.84 255.85 63.69 255.30 65.53 C 250.71 62.24 248.30 57.01 246.03 52.03 C 245.66 51.04 245.29 50.04 244.93 49.05 C 243.74 41.55 244.48 33.88 246.54 26.59 Z" />
<path fill="#3b2bb2" opacity="1.00" d=" M 269.05 41.11 C 270.62 40.13 272.40 39.57 274.11 38.87 C 275.66 40.81 278.37 42.75 277.58 45.60 C 277.27 47.89 274.89 48.76 273.00 49.43 C 268.78 50.01 266.28 44.03 269.05 41.11 Z" />
</g>
</svg>
