<?xml version="1.0" encoding="UTF-8" ?>
<!DOCTYPE svg PUBLIC "-//W3C//DTD SVG 1.1//EN" "http://www.w3.org/Graphics/SVG/1.1/DTD/svg11.dtd">
<svg width="689pt" height="689pt" viewBox="0 0 689 689" version="1.1" xmlns="http://www.w3.org/2000/svg">
<g id="#ffffffff">
</g>
<g id="#f95e28ff">
<path fill="#f95e28" opacity="1.00" d=" M 144.12 26.08 C 152.29 19.03 165.07 18.06 174.21 23.77 C 180.50 27.55 185.23 34.16 186.14 41.50 C 187.91 35.31 190.87 29.03 196.35 25.30 C 204.26 19.07 215.94 18.40 224.65 23.34 C 232.44 27.58 237.70 36.11 237.84 44.99 C 237.74 50.03 237.35 55.72 233.61 59.53 C 224.00 70.12 210.64 76.55 197.07 80.41 C 189.90 75.66 182.04 72.08 174.03 69.01 C 157.26 62.43 136.88 67.34 125.08 81.00 C 129.72 77.70 135.24 75.37 141.02 75.50 C 152.67 75.06 163.87 83.68 166.43 95.05 C 168.44 102.33 166.29 109.80 165.38 117.06 C 155.26 120.53 150.32 133.39 155.53 142.74 C 152.90 147.46 149.72 151.82 146.31 155.99 C 141.60 160.31 135.54 163.39 129.07 163.60 C 120.54 164.08 111.86 160.09 106.88 153.12 C 102.76 147.73 101.09 140.59 102.06 133.91 C 103.18 125.68 109.48 119.59 111.91 111.81 C 113.84 106.87 115.70 101.80 115.75 96.42 C 116.31 93.04 117.90 89.96 119.48 86.97 C 116.52 88.50 113.39 89.97 109.96 89.76 C 101.10 90.15 92.74 82.83 91.86 74.03 C 90.77 66.40 95.18 58.30 102.31 55.29 C 108.91 52.06 117.10 53.76 122.35 58.73 C 126.49 46.14 134.03 34.69 144.12 26.08 M 137.39 94.49 C 132.51 96.91 131.80 104.57 136.36 107.69 C 141.25 112.18 150.12 107.51 149.26 101.00 C 149.09 95.37 142.23 91.42 137.39 94.49 Z" />
<path fill="#f95e28" opacity="1.00" d=" M 358.92 354.04 C 359.40 351.85 358.62 349.20 360.17 347.38 C 375.94 366.06 393.39 383.34 412.52 398.58 C 421.20 405.78 426.78 416.49 427.87 427.71 C 428.95 438.04 426.15 448.73 420.17 457.22 C 415.71 463.64 409.40 468.61 402.43 472.07 C 393.51 476.00 383.45 476.82 373.95 474.81 C 320.48 467.84 268.56 449.07 223.19 419.90 C 259.29 421.08 295.72 411.53 326.35 392.31 C 328.92 390.50 331.64 388.91 334.55 387.69 C 347.73 381.65 357.14 368.36 358.92 354.04 Z" />
</g>
<g id="#f4cb19ff">
<path fill="#f4cb19" opacity="1.00" d=" M 125.08 81.00 C 136.88 67.34 157.26 62.43 174.03 69.01 C 182.04 72.08 189.90 75.66 197.07 80.41 C 207.46 86.82 216.45 95.31 224.27 104.63 C 241.46 125.61 250.59 152.94 249.61 180.04 C 249.54 185.72 248.35 191.34 248.44 197.03 C 248.25 220.89 255.82 244.76 269.83 264.08 C 283.28 282.87 302.59 297.41 324.42 305.01 C 314.08 303.43 303.18 304.62 294.02 309.93 C 287.45 314.00 279.65 315.94 271.94 315.75 C 259.94 316.12 248.36 310.35 240.19 301.78 C 236.13 297.39 233.55 291.92 229.74 287.35 C 219.40 273.90 206.15 262.58 190.99 254.92 C 166.66 242.21 137.67 239.19 111.09 245.77 C 114.63 236.18 119.12 226.95 124.27 218.13 C 134.52 198.60 141.93 177.60 146.31 155.99 C 149.72 151.82 152.90 147.46 155.53 142.74 C 157.76 146.35 160.97 149.49 164.99 150.98 C 171.62 153.61 179.75 151.82 184.59 146.54 C 190.68 140.47 191.18 129.90 185.87 123.18 C 181.28 116.92 172.64 114.65 165.38 117.06 C 166.29 109.80 168.44 102.33 166.43 95.05 C 163.87 83.68 152.67 75.06 141.02 75.50 C 135.24 75.37 129.72 77.70 125.08 81.00 Z" />
<path fill="#f4cb19" opacity="1.00" d=" M 80.11 111.65 C 81.34 103.14 89.32 96.04 98.01 96.36 C 103.92 96.41 109.84 96.35 115.75 96.42 C 115.70 101.80 113.84 106.87 111.91 111.81 C 101.31 111.94 90.70 111.95 80.11 111.65 Z" />
</g>
<g id="#321914ff">
<path fill="#321914" opacity="1.00" d=" M 137.39 94.49 C 142.23 91.42 149.09 95.37 149.26 101.00 C 150.12 107.51 141.25 112.18 136.36 107.69 C 131.80 104.57 132.51 96.91 137.39 94.49 Z" />
</g>
<g id="#f8f8faff">
</g>
<g id="#ededefff">
<path fill="#ededef" opacity="1.00" d=" M 165.38 117.06 C 172.64 114.65 181.28 116.92 185.87 123.18 C 191.18 129.90 190.68 140.47 184.59 146.54 C 179.75 151.82 171.62 153.61 164.99 150.98 C 160.97 149.49 157.76 146.35 155.53 142.74 C 150.32 133.39 155.26 120.53 165.38 117.06 Z" />
</g>
<g id="#462bd8ff">
<path fill="#462bd8" opacity="1.00" d=" M 541.28 135.31 C 576.87 119.97 620.18 124.70 651.55 147.48 C 654.83 149.33 657.19 152.94 661.07 153.54 C 641.91 195.05 627.47 238.89 619.96 284.04 C 604.82 365.31 569.69 442.70 518.77 507.79 C 517.91 508.90 516.66 509.59 515.47 510.27 C 492.86 522.03 468.82 531.15 443.93 536.74 C 446.08 534.40 449.30 533.99 452.18 533.08 C 467.57 528.69 481.39 520.31 494.72 511.67 C 501.59 507.43 507.14 501.44 512.51 495.49 C 521.43 483.25 527.41 468.30 526.86 452.96 C 527.55 432.44 517.90 412.13 502.40 398.88 C 516.72 375.31 516.93 343.99 502.78 320.30 C 499.99 315.28 496.33 310.85 492.67 306.47 C 477.24 284.94 469.88 257.77 472.24 231.40 C 474.45 189.67 502.83 151.16 541.28 135.31 Z" />
</g>
<g id="#eeeef0ff">
<path fill="#eeeef0" opacity="1.00" d=" M 467.30 241.30 C 468.69 237.89 469.17 233.82 472.24 231.40 C 469.88 257.77 477.24 284.94 492.67 306.47 C 496.33 310.85 499.99 315.28 502.78 320.30 C 516.93 343.99 516.72 375.31 502.40 398.88 C 490.76 418.41 470.20 432.48 447.63 435.65 C 446.00 432.70 443.51 429.79 440.03 429.16 C 436.03 428.32 431.89 428.46 427.87 427.71 C 426.78 416.49 421.20 405.78 412.52 398.58 C 393.39 383.34 375.94 366.06 360.17 347.38 C 359.97 347.16 359.57 346.73 359.37 346.51 C 358.90 334.46 353.33 322.68 344.05 314.93 C 341.42 312.78 338.60 310.86 335.71 309.07 C 341.88 309.10 347.81 311.13 353.98 311.20 C 360.32 311.36 366.67 311.37 373.01 311.03 C 392.37 309.15 411.15 302.17 427.20 291.21 C 440.10 281.23 452.35 269.75 460.16 255.24 C 462.87 250.77 465.65 246.29 467.30 241.30 Z" />
</g>
<g id="#f89ba5ff">
<path fill="#f89ba5" opacity="1.00" d=" M 111.09 245.77 C 137.67 239.19 166.66 242.21 190.99 254.92 C 206.15 262.58 219.40 273.90 229.74 287.35 C 233.55 291.92 236.13 297.39 240.19 301.78 C 248.36 310.35 259.94 316.12 271.94 315.75 C 279.65 315.94 287.45 314.00 294.02 309.93 C 303.18 304.62 314.08 303.43 324.42 305.01 C 328.21 306.26 332.04 307.46 335.71 309.07 C 338.60 310.86 341.42 312.78 344.05 314.93 C 353.33 322.68 358.90 334.46 359.37 346.51 C 359.57 346.73 359.97 347.16 360.17 347.38 C 358.62 349.20 359.40 351.85 358.92 354.04 C 357.14 368.36 347.73 381.65 334.55 387.69 C 331.64 388.91 328.92 390.50 326.35 392.31 C 295.72 411.53 259.29 421.08 223.19 419.90 C 182.45 418.74 142.17 403.53 111.11 377.11 C 94.98 335.31 95.07 287.59 111.09 245.77 Z" />
</g>
<g id="#6f2bd8ff">
<path fill="#6f2bd8" opacity="1.00" d=" M 111.11 377.11 C 142.17 403.53 182.45 418.74 223.19 419.90 C 268.56 449.07 320.48 467.84 373.95 474.81 C 383.45 476.82 393.51 476.00 402.43 472.07 C 414.84 473.99 427.57 474.21 439.97 472.08 C 443.83 471.04 447.01 467.85 448.12 464.01 C 449.63 458.99 447.33 453.45 443.01 450.62 C 447.85 447.45 449.91 441.01 447.63 435.65 C 470.20 432.48 490.76 418.41 502.40 398.88 C 517.90 412.13 527.55 432.44 526.86 452.96 C 527.41 468.30 521.43 483.25 512.51 495.49 C 507.14 501.44 501.59 507.43 494.72 511.67 C 481.39 520.31 467.57 528.69 452.18 533.08 C 449.30 533.99 446.08 534.40 443.93 536.74 C 435.28 538.90 426.49 540.56 417.64 541.63 C 388.56 545.50 358.94 545.17 329.95 540.72 C 311.90 537.74 294.11 533.25 276.84 527.18 C 224.41 508.54 177.51 474.71 143.14 430.95 C 129.53 414.98 118.55 396.74 111.11 377.11 Z" />
</g>
<g id="#ffca56ff">
<path fill="#ffca56" opacity="1.00" d=" M 427.87 427.71 C 431.89 428.46 436.03 428.32 440.03 429.16 C 443.51 429.79 446.00 432.70 447.63 435.65 C 449.91 441.01 447.85 447.45 443.01 450.62 C 447.33 453.45 449.63 458.99 448.12 464.01 C 447.01 467.85 443.83 471.04 439.97 472.08 C 427.57 474.21 414.84 473.99 402.43 472.07 C 409.40 468.61 415.71 463.64 420.17 457.22 C 426.15 448.73 428.95 438.04 427.87 427.71 Z" />
</g>
<g id="#2b61dbff">
<path fill="#2b61db" opacity="1.00" d=" M 276.84 527.18 C 294.11 533.25 311.90 537.74 329.95 540.72 C 329.93 549.27 329.53 557.87 330.61 566.37 C 332.50 577.19 338.57 587.25 347.36 593.87 C 342.28 597.74 336.33 600.38 330.12 601.82 C 323.76 603.04 317.11 603.08 310.78 601.63 C 300.86 599.24 291.82 593.39 285.71 585.20 C 280.01 577.74 277.08 568.39 276.95 559.04 C 276.76 548.42 276.96 537.80 276.84 527.18 Z" />
</g>
<g id="#4980e5ff">
<path fill="#4980e5" opacity="1.00" d=" M 329.95 540.72 C 358.94 545.17 388.56 545.50 417.64 541.63 C 417.20 552.19 419.06 563.15 415.33 573.31 C 410.58 587.47 398.05 598.53 383.48 601.72 C 377.17 603.04 370.55 603.12 364.24 601.74 C 358.16 600.30 352.34 597.67 347.36 593.87 C 338.57 587.25 332.50 577.19 330.61 566.37 C 329.53 557.87 329.93 549.27 329.95 540.72 Z" />
</g>
<g id="#a7d1c3ff">
<path fill="#a7d1c3" opacity="1.00" d=" M 310.78 601.63 C 317.11 603.08 323.76 603.04 330.12 601.82 C 330.19 616.82 330.17 631.82 330.13 646.82 C 341.84 646.85 353.33 641.84 361.50 633.48 C 362.90 631.98 364.40 630.22 364.17 628.01 C 364.24 619.25 364.09 610.50 364.24 601.74 C 370.55 603.12 377.17 603.04 383.48 601.72 C 383.63 610.97 383.39 620.22 383.62 629.47 C 377.40 633.68 370.85 637.40 364.30 641.08 C 364.21 638.72 364.16 636.37 364.06 634.03 C 362.14 637.23 361.16 640.96 358.90 643.96 C 355.30 646.49 351.21 648.24 347.37 650.38 C 327.64 660.59 307.23 669.43 286.44 677.25 C 274.25 677.03 262.04 677.52 249.87 677.02 C 251.09 676.46 252.34 675.95 253.60 675.49 C 272.66 669.41 291.67 663.15 310.70 656.97 C 310.86 638.52 310.70 620.08 310.78 601.63 Z" />
</g>
</svg>
