<?xml version="1.0" encoding="UTF-8" ?>
<!DOCTYPE svg PUBLIC "-//W3C//DTD SVG 1.1//EN" "http://www.w3.org/Graphics/SVG/1.1/DTD/svg11.dtd">
<svg width="318pt" height="266pt" viewBox="0 0 318 266" version="1.1" xmlns="http://www.w3.org/2000/svg">
<g id="#ffffffff">
<path fill="#ffffff" opacity="1.00" d=" M 224.38 38.45 C 227.12 37.90 229.78 39.53 231.41 41.63 C 234.35 45.37 235.54 50.31 235.14 55.00 C 234.81 57.99 233.82 61.38 231.02 62.96 C 228.83 64.30 225.92 63.54 224.18 61.82 C 220.14 58.10 218.61 52.30 218.95 46.97 C 219.15 43.53 220.84 39.55 224.38 38.45 Z" />
<path fill="#ffffff" opacity="1.00" d=" M 245.45 39.59 C 248.03 37.40 252.24 38.34 253.83 41.25 C 257.22 47.10 255.92 54.78 252.09 60.10 C 250.25 62.81 246.38 64.61 243.33 62.80 C 240.25 60.62 239.37 56.57 239.43 53.02 C 239.60 48.03 241.29 42.67 245.45 39.59 Z" />
<path fill="#ffffff" opacity="1.00" d=" M 212.40 57.42 C 219.01 57.21 223.19 65.09 222.38 71.00 C 222.31 74.46 218.43 77.26 215.20 75.70 C 210.49 73.45 208.00 67.96 208.25 62.91 C 208.51 60.54 209.83 57.88 212.40 57.42 Z" />
<path fill="#ffffff" opacity="1.00" d=" M 258.28 58.19 C 261.38 56.02 265.92 58.29 266.24 62.00 C 267.00 67.84 263.48 75.64 256.94 76.07 C 252.08 75.58 251.26 69.50 252.68 65.75 C 253.64 62.71 255.44 59.78 258.28 58.19 Z" />
<path fill="#ffffff" opacity="1.00" d=" M 235.43 64.54 C 240.86 63.39 245.60 67.25 248.69 71.28 C 251.84 75.49 256.39 79.07 257.47 84.47 C 258.49 90.11 254.44 95.19 249.95 98.05 C 246.69 99.99 242.65 100.13 239.12 98.87 C 236.74 97.87 234.41 99.47 232.03 99.64 C 223.72 100.24 215.29 91.79 217.46 83.38 C 218.58 79.37 221.81 76.49 224.32 73.32 C 227.31 69.68 230.53 65.52 235.43 64.54 Z" />
</g>
<g id="#8a69d2ff">
<path fill="#8a69d2" opacity="1.00" d=" M 218.05 34.01 C 224.82 31.24 231.63 34.89 238.02 36.88 C 241.17 36.50 243.92 34.68 247.00 33.98 C 251.59 32.71 257.18 32.73 260.82 36.23 C 264.56 40.01 265.07 45.60 265.52 50.61 C 269.14 52.63 272.34 55.74 273.08 59.98 C 274.24 67.06 272.61 75.16 267.00 80.05 C 263.73 82.75 264.41 87.30 264.36 91.05 C 264.43 135.36 264.36 179.68 264.39 223.99 C 264.46 229.09 263.40 234.25 260.85 238.71 C 255.61 248.41 243.92 254.05 233.07 252.15 C 222.55 250.68 213.51 242.30 211.07 232.00 C 209.97 227.74 210.26 223.31 210.24 218.96 C 210.26 176.65 210.22 134.33 210.26 92.02 C 210.17 89.05 210.67 85.97 209.82 83.08 C 207.95 79.76 204.36 77.65 203.01 73.98 C 200.80 68.14 199.80 61.26 202.41 55.39 C 203.57 52.57 206.35 51.09 208.87 49.68 C 209.86 43.64 211.73 36.49 218.05 34.01 M 224.38 38.45 C 220.84 39.55 219.15 43.53 218.95 46.97 C 218.61 52.30 220.14 58.10 224.18 61.82 C 225.92 63.54 228.83 64.30 231.02 62.96 C 233.82 61.38 234.81 57.99 235.14 55.00 C 235.54 50.31 234.35 45.37 231.41 41.63 C 229.78 39.53 227.12 37.90 224.38 38.45 M 245.45 39.59 C 241.29 42.67 239.60 48.03 239.43 53.02 C 239.37 56.57 240.25 60.62 243.33 62.80 C 246.38 64.61 250.25 62.81 252.09 60.10 C 255.92 54.78 257.22 47.10 253.83 41.25 C 252.24 38.34 248.03 37.40 245.45 39.59 M 212.40 57.42 C 209.83 57.88 208.51 60.54 208.25 62.91 C 208.00 67.96 210.49 73.45 215.20 75.70 C 218.43 77.26 222.31 74.46 222.38 71.00 C 223.19 65.09 219.01 57.21 212.40 57.42 M 258.28 58.19 C 255.44 59.78 253.64 62.71 252.68 65.75 C 251.26 69.50 252.08 75.58 256.94 76.07 C 263.48 75.64 267.00 67.84 266.24 62.00 C 265.92 58.29 261.38 56.02 258.28 58.19 M 235.43 64.54 C 230.53 65.52 227.31 69.68 224.32 73.32 C 221.81 76.49 218.58 79.37 217.46 83.38 C 215.29 91.79 223.72 100.24 232.03 99.64 C 234.41 99.47 236.74 97.87 239.12 98.87 C 242.65 100.13 246.69 99.99 249.95 98.05 C 254.44 95.19 258.49 90.11 257.47 84.47 C 256.39 79.07 251.84 75.49 248.69 71.28 C 245.60 67.25 240.86 63.39 235.43 64.54 Z" />
<path fill="#8a69d2" opacity="1.00" d=" M 40.16 100.15 C 47.33 89.21 65.77 89.06 73.29 99.70 C 75.96 103.19 76.83 107.69 76.88 112.00 C 76.93 125.96 76.78 139.92 76.95 153.89 C 98.18 153.84 119.42 153.99 140.66 153.81 C 140.60 140.22 140.67 126.63 140.62 113.04 C 140.59 108.47 141.22 103.65 143.93 99.83 C 151.41 89.21 169.79 89.07 177.08 99.97 C 179.64 103.43 180.49 107.78 180.49 112.00 C 180.52 151.66 180.50 191.32 180.50 230.98 C 180.51 235.67 179.19 240.45 176.21 244.14 C 169.76 252.35 156.85 253.07 148.38 247.72 C 142.58 243.95 140.42 236.63 140.61 230.04 C 140.64 215.48 140.66 200.93 140.61 186.38 C 119.44 186.33 98.26 186.47 77.09 186.30 C 76.52 201.88 77.17 217.48 76.77 233.06 C 76.50 241.29 70.31 249.04 62.12 250.57 C 54.62 252.04 45.65 250.44 40.84 244.01 C 38.04 240.30 36.99 235.59 36.99 231.01 C 36.99 191.34 36.99 151.66 36.99 111.99 C 37.00 107.87 37.81 103.61 40.16 100.15 Z" />
</g>
</svg>
